<svg width="250" height="52" viewBox="0 0 250 52" fill="none" xmlns="http://www.w3.org/2000/svg">
<g clip-path="url(#clip0_320_1034)">
<rect width="250" height="52" fill="white"/>
<path fill-rule="evenodd" clip-rule="evenodd" d="M0.299316 51.8612H249.943V0.213631H0.299316V51.8612Z" stroke="#1A1919" stroke-width="1.5"/>
<path fill-rule="evenodd" clip-rule="evenodd" d="M28.1785 15.0568H24.1748V25.1206H22.5201V15.0568H18.5151V13.5692H28.1785V15.0568Z" fill="#1A1919"/>
<path fill-rule="evenodd" clip-rule="evenodd" d="M41.7535 25.1203H40.0987V20.0891H33.6247V25.1203H31.9712V13.5702H33.6247V18.6015H40.0987V13.5702H41.7535V25.1203Z" fill="#1A1919"/>
<path fill-rule="evenodd" clip-rule="evenodd" d="M53.1031 15.0568H48.2002V18.5613H52.9332V20.0476H48.2002V23.633H53.256V25.1206H46.5454V13.5692H53.1031V15.0568Z" fill="#1A1919"/>
<path fill-rule="evenodd" clip-rule="evenodd" d="M75.8343 25.2221H75.5114L71.7117 15.7698L67.878 25.2221H67.5551L62.8718 13.5691H64.5344L67.7237 21.5299L70.9314 13.5691H72.509L75.7323 21.5299L78.8876 13.5691H80.5346L75.8343 25.2221Z" fill="#1A1919"/>
<path fill-rule="evenodd" clip-rule="evenodd" d="M93.8248 25.1203H92.17V20.0891H85.696V25.1203H84.0425V13.5702H85.696V18.6015H92.17V13.5702H93.8248V25.1203Z" fill="#1A1919"/>
<path fill-rule="evenodd" clip-rule="evenodd" d="M98.6147 25.1208H100.27V13.5707H98.6147V25.1208Z" fill="#1A1919"/>
<path fill-rule="evenodd" clip-rule="evenodd" d="M113.724 15.0568H109.72V25.1206H108.066V15.0568H104.062V13.5692H113.724V15.0568Z" fill="#1A1919"/>
<path fill-rule="evenodd" clip-rule="evenodd" d="M124.074 15.0568H119.171V18.5613H123.905V20.0476H119.171V23.633H124.227V25.1206H117.516V13.5692H124.074V15.0568Z" fill="#1A1919"/>
<g clip-path="url(#clip1_320_1034)">
<path fill-rule="evenodd" clip-rule="evenodd" d="M144.975 16.1371C143.55 15.3053 142.328 14.9324 140.987 14.9324C138.343 14.9324 136.374 16.8164 136.374 19.3626C136.374 21.9584 138.273 23.7576 141.056 23.7576C142.363 23.7576 143.788 23.2987 145.095 22.4499V24.2648C143.957 24.858 142.717 25.2817 140.903 25.2817C136.56 25.2817 134.658 21.9415 134.658 19.5152C134.658 15.9845 137.323 13.4083 141.005 13.4083C142.192 13.4083 143.397 13.6964 144.975 14.3574V16.1371Z" fill="#1A1919"/>
<path fill-rule="evenodd" clip-rule="evenodd" d="M148.817 19.345C148.817 22.4845 151.209 25.2811 154.993 25.2811C158.912 25.2811 161.253 22.4675 161.253 19.345C161.253 16.1208 158.842 13.409 155.026 13.409C151.276 13.409 148.817 16.1377 148.817 19.345ZM150.53 19.345C150.53 16.7988 152.447 14.9331 155.026 14.9331C157.621 14.9331 159.539 16.7988 159.539 19.345C159.539 21.873 157.621 23.757 155.026 23.757C152.447 23.757 150.53 21.873 150.53 19.345Z" fill="#1A1919"/>
<path fill-rule="evenodd" clip-rule="evenodd" d="M176.258 25.1203H174.603V16.1165H174.571L171.002 20.5923H170.73L167.162 16.1165H167.129V25.1203H165.475V13.5702H167.026L170.866 18.312L174.721 13.5702H176.258V25.1203Z" fill="#1A1919"/>
<path fill-rule="evenodd" clip-rule="evenodd" d="M181.548 13.5697V25.1198H183.203V20.129H184.936C187.619 20.129 188.839 18.7092 188.839 16.8917C188.839 15.0573 187.685 13.5697 185.155 13.5697H181.548ZM183.203 15.0573H185.155C186.666 15.0573 187.127 15.9739 187.127 16.8239C187.127 17.9791 186.327 18.6427 185.089 18.6427H183.203V15.0573Z" fill="#1A1919"/>
<path fill-rule="evenodd" clip-rule="evenodd" d="M197.363 13.5086H196.193L191.224 25.1199H192.919L194.379 21.7184H199.298L200.84 25.1199H202.538L197.363 13.5086ZM196.753 16.0483L198.619 20.2308H195.022L196.753 16.0483Z" fill="#1A1919"/>
<path fill-rule="evenodd" clip-rule="evenodd" d="M216.714 25.1203H215.297L207.565 16.2286V25.1203H206.012V13.5702H207.327L215.161 22.5128V13.5702H216.714V25.1203Z" fill="#1A1919"/>
<path fill-rule="evenodd" clip-rule="evenodd" d="M228.434 13.5697H230.438L226.144 19.0234V25.1198H224.49V19.0064L220.198 13.5697H222.2L225.303 17.5501L228.434 13.5697Z" fill="#1A1919"/>
<path fill-rule="evenodd" clip-rule="evenodd" d="M102.153 33.9691H101.267V39.3159H104.589V38.342H102.316V33.9691H102.153Z" fill="#1A1919"/>
<path fill-rule="evenodd" clip-rule="evenodd" d="M109.962 36.6429C109.962 35.6273 110.716 34.8906 111.754 34.8906C112.797 34.8906 113.554 35.6273 113.554 36.6429C113.554 37.6559 112.797 38.3926 111.754 38.3926C110.716 38.3926 109.962 37.6559 109.962 36.6429ZM108.89 36.6429C108.89 38.2035 110.115 39.3821 111.74 39.3821C113.635 39.3821 114.626 38.0027 114.626 36.6429C114.626 35.0549 113.419 33.9024 111.754 33.9024C110.122 33.9024 108.89 35.081 108.89 36.6429Z" fill="#1A1919"/>
<path fill-rule="evenodd" clip-rule="evenodd" d="M122.92 33.9691H122.078V37.5845C121.599 37.0382 118.954 34.0252 118.954 34.0252L118.258 33.9691H118.093V39.3159H119.099V35.724C119.579 36.2755 122.178 39.2598 122.178 39.2598L122.92 39.3159H123.083V33.9691H122.92Z" fill="#1A1919"/>
<path fill-rule="evenodd" clip-rule="evenodd" d="M128.94 34.9432C130.121 34.9432 130.826 35.5781 130.826 36.6433C130.826 37.273 130.438 38.3408 128.975 38.3408H127.987V34.9432H128.94ZM127.102 33.9693H126.939V39.316H129.065C130.906 39.316 131.899 37.9379 131.899 36.6433C131.899 35.3539 131.01 33.9693 129.058 33.9693H127.102Z" fill="#1A1919"/>
<path fill-rule="evenodd" clip-rule="evenodd" d="M136.453 36.6429C136.453 35.6273 137.206 34.8906 138.245 34.8906C139.29 34.8906 140.045 35.6273 140.045 36.6429C140.045 37.6559 139.29 38.3926 138.245 38.3926C137.206 38.3926 136.453 37.6559 136.453 36.6429ZM135.381 36.6429C135.381 38.2035 136.606 39.3821 138.232 39.3821C140.127 39.3821 141.117 38.0027 141.117 36.6429C141.117 35.0549 139.91 33.9024 138.245 33.9024C136.614 33.9024 135.381 35.081 135.381 36.6429Z" fill="#1A1919"/>
<path fill-rule="evenodd" clip-rule="evenodd" d="M149.412 33.9691H148.569V37.5845C148.089 37.0382 145.447 34.0252 145.447 34.0252L144.748 33.9691H144.585V39.3159H145.59V35.724C146.07 36.2755 148.669 39.2598 148.669 39.2598L149.412 39.3159H149.575V33.9691H149.412Z" fill="#1A1919"/>
</g>
</g>
<defs>
<clipPath id="clip0_320_1034">
<rect width="250" height="52" fill="white"/>
</clipPath>
<clipPath id="clip1_320_1034">
<rect width="130" height="27" fill="white" transform="translate(100.646 13.0375)" shape-rendering="auto"/>
</clipPath>
</defs>
</svg>
