<svg version="1.1" id="b" xmlns="http://www.w3.org/2000/svg" xmlns:xlink="http://www.w3.org/1999/xlink" x="18px" y="18px" viewBox="0 0 16.9 17.9" xml:space="preserve">
	<g id="uuid-15261f33-fe9f-491e-8c19-56f0e362e62a" data-name="logo">
<path id="d" class="st0" d="M9.9,0H7C6.4,0,6,0.5,6,1.1v3.6L3,2.8C2.5,2.5,1.9,2.7,1.6,3.2c0,0,0,0,0,0L0.1,5.8
	C-0.1,6.3,0,6.9,0.5,7.2l3,1.8l-3,1.8c-0.5,0.3-0.7,0.9-0.4,1.4l1.4,2.5c0.3,0.5,0.9,0.7,1.4,0.4l3-1.8v3.6c0,0.6,0.5,1.1,1,1.1h2.9
	c0.6,0,1-0.5,1-1.1v-6.5l5.5-3.2c0.5-0.3,0.7-0.9,0.4-1.4l-1.4-2.5c-0.3-0.5-0.9-0.7-1.4-0.4c0,0,0,0,0,0l-3,1.8V1.1
	C10.9,0.5,10.4,0,9.9,0C9.9,0,9.9,0,9.9,0z M2.6,14.5c-0.1,0.1-0.3,0-0.4-0.1c0,0,0,0,0,0l-1.4-2.5c-0.1-0.2,0-0.4,0.1-0.5l3.4-2
	l1.7,1v2.1L2.6,14.5 M6.7,10v6.9c0,0.2,0.1,0.3,0.3,0.3h2.9c0.2,0,0.3-0.1,0.3-0.3l0,0V10l0.2-0.1L16,6.6c0.2-0.1,0.2-0.3,0.1-0.5
	l-1.4-2.5c-0.1-0.2-0.3-0.2-0.4-0.1c0,0,0,0,0,0l-3.4,2v0l-0.2,0.1L9,6.6c-0.3,0.2-0.7,0.2-1,0L6,5.5v0l-3.4-2
	c-0.1-0.1-0.3,0-0.4,0.1c0,0,0,0,0,0L0.8,6.1c-0.1,0.2,0,0.4,0.1,0.5l3.4,2L6.7,10L6.7,10z M8.6,6L10.2,5v-4c0-0.2-0.1-0.3-0.3-0.3
	H7c-0.2,0-0.3,0.2-0.3,0.3v4L8.3,6C8.4,6,8.5,6,8.6,6z M11.4,10.7l2.5-1.5L14,9.4l2.4,1.4c0.5,0.3,0.7,0.9,0.4,1.4l-1.4,2.5
	c-0.3,0.5-0.9,0.7-1.4,0.4l-2.5-1.5L11.4,10.7L11.4,10.7L11.4,10.7z M14.3,14.5c0.1,0.1,0.3,0,0.4-0.1l1.4-2.5
	c0.1-0.2,0-0.4-0.1-0.5l-2.2-1.3l-0.5,0.3v1.5l-1.3,0.7v0.6L14.3,14.5L14.3,14.5L14.3,14.5z" fill="#fff" fill-rule="evenodd"/>
</g>
</svg>
