<?xml version="1.0" encoding="UTF-8"?>
<svg id="uuid-cf4afd56-a366-435a-8922-ed153f3535f8" data-name="Layer 2" xmlns="http://www.w3.org/2000/svg" viewBox="0 0 16.9 17.9">
  <defs>
    <style>
      .uuid-122cd1c4-586b-48bb-8ee8-5cdd6a63e119 {
        fill: #fff;
        fill-rule: evenodd;
      }
    </style>
  </defs>
  <g id="uuid-415ac33e-bd5d-4d3d-bf82-56faa14a9a64" data-name="Layer 1">
    <path id="uuid-ca84db4e-6638-4d3e-b479-a6c72087a357" data-name="yj-stroke" class="uuid-122cd1c4-586b-48bb-8ee8-5cdd6a63e119" d="m9.9,0h-2.9c-.6,0-1,.5-1,1.1v3.6l-3-1.8c-.5-.3-1.1-.1-1.4.4,0,0,0,0,0,0L.1,5.8c-.3.5-.1,1.1.4,1.4l3,1.8-3,1.8c-.5.3-.7.9-.4,1.4l1.4,2.5c.3.5.9.7,1.4.4l3-1.8v3.6c0,.6.5,1.1,1,1.1h2.9c.6,0,1-.5,1-1.1v-6.5l5.5-3.2c.5-.3.7-.9.4-1.4l-1.4-2.5c-.3-.5-.9-.7-1.4-.4,0,0,0,0,0,0l-3,1.8V1.1c0-.6-.5-1.1-1-1.1h0Zm-5.6,9.4l1.7,1v2.1l-3.4,2,.2.3-.2-.3c-.1,0-.3,0-.4-.1,0,0,0,0,0,0l-1.4-2.5c0-.2,0-.4.1-.5l3.4-2Zm2.5.6v6.9c0,.2.1.3.3.3h2.9c.2,0,.3-.1.3-.3h0v-6.9h.2c0-.1,5.6-3.4,5.6-3.4.2,0,.2-.3.1-.5l-1.4-2.5c0-.2-.3-.2-.4-.1,0,0,0,0,0,0l-3.4,2h0s-.2.1-.2.1l-1.8,1c-.3.2-.7.2-1,0l-1.9-1.1h0s-3.4-2-3.4-2c-.1,0-.3,0-.4.1,0,0,0,0,0,0l-1.4,2.5c0,.2,0,.4.1.5l3.4,2s2.5,1.5,2.5,1.5Zm1.9-4l1.6-.9V1.1c0-.2-.1-.3-.3-.3h-2.9c-.2,0-.3.2-.3.3v4l1.6.9c0,0,.2,0,.3,0Zm2.8,4.7l2.5-1.5h.2c0,.1,2.4,1.5,2.4,1.5.5.3.7.9.4,1.4l-1.4,2.5c-.3.5-.9.7-1.4.4l-2.5-1.5v-2.9h0Zm2.9,3.8c.1,0,.3,0,.4-.1l1.4-2.5c0-.2,0-.4-.1-.5l-2.2-1.3-.5.3v1.5l-1.3.7v.6l2.2,1.3h0Z"/>
  </g>
</svg>