<svg enable-background="new 0 0 760 795" viewBox="0 0 760 795" xmlns="http://www.w3.org/2000/svg"><g fill="#2d2926"><path d="m641.6 641.7c6.7 3.9 15.3 1.6 19.3-5.3l64.2-112.4c4-7 1.6-16-5.2-19.9l-98.3-57.4-78.4 45.7v91.8zm-130.4-167.6 110.4-64.4 8.1 4.7 106.3 62.1c22 12.9 29.6 41.2 16.9 63.5l-64.2 112.4c-12.7 22.3-41.1 30-63.2 17.1l-114.3-66.7z"/><path d="m490.4 461.7v286.8h-16 16c0 25.7-20.6 46.5-46.2 46.5h-128.4c-25.6 0-46.2-20.9-46.2-46.5v-286.8l-245.6-143.4c-22-12.8-29.5-41.2-16.8-63.4l64.2-112.4c12.7-22.3 41.1-30 63.2-17.1l238.4 139.2c4.4 2.5 9.7 2.5 14.1 0l238.4-139.2c22.1-12.9 50.5-5.2 63.2 17.1l64.2 112.4c12.7 22.2 5.2 50.6-16.9 63.5zm-16 286.8h-16v-305.2l7.9-4.6 253.5-148c6.8-4 9.2-13 5.2-20l-64.2-112.4c-3.9-6.9-12.5-9.2-19.3-5.3l-238.3 139.3c-14.3 8.4-32 8.4-46.3 0l-238.5-139.2c-6.7-3.9-15.4-1.6-19.3 5.3l-64.2 112.3c-4 7-1.6 16 5.2 20l261.5 152.6v305.2c0 8.1 6.4 14.5 14.2 14.5h128.3c7.8 0 14.2-6.5 14.2-14.5z"/><path d="m458.4 46.5c0-8.1-6.4-14.5-14.2-14.5h-128.4v-16 16c-7.8 0-14.2 6.5-14.2 14.5v176.6l71.3 41.6c4.4 2.5 9.7 2.5 14 0l71.3-41.6v-176.6zm-142.6-30.5v-16h128.3c25.6 0 46.2 20.9 46.2 46.5v195l-7.9 4.6-79.3 46.3c-14.3 8.4-32 8.4-46.3 0l-87.2-50.9v-195c0-25.7 20.6-46.5 46.2-46.5z"/><path d="m118.4 641.7 151.2-88.3v-91.8l-78.4-45.7-151 88.3c-6.8 4-9.2 13-5.2 19.9l64.2 112.4c3.8 6.8 12.5 9.2 19.2 5.2l8.1 13.8zm-47.1 10.6-64.1-112.3c-12.7-22.2-5.2-50.6 16.8-63.5l167.2-97.6 110.4 64.4v128.5l-167.1 97.5c-22.1 13-50.4 5.3-63.2-17z"/><path d="m540.3 559.2-.1-69.1 59.9-34.5.1 69.2z"/></g></svg>