<?xml version="1.0" encoding="UTF-8"?>
<svg id="uuid-06204a3b-8156-4e98-b806-251a95b61b88" data-name="b" xmlns="http://www.w3.org/2000/svg" viewBox="0 0 18 18">
  <path id="uuid-ac3514c5-ffdb-460f-8b13-9070c3063732" data-name="d" d="m10.4375,0h-2.877C6.9881,0,6.5253.4726,6.5253,1.0534v3.5726l-3.0306-1.7854c-.4877-.2861-1.1159-.1241-1.4031.3617-.0047.008-.0094.0161-.0139.0243l-1.439,2.544c-.2851.502-.1172,1.1389.3789,1.4365l3.0382,1.7911-3.0382,1.7911c-.4959.2975-.6639.9345-.3789,1.4365l1.4389,2.544c.2863.5048.9208.6788,1.417.386l3.0306-1.7854v3.5764c0,.5808.4628,1.0533,1.0353,1.0533h2.8779c.5725,0,1.0363-.4725,1.0363-1.0533v-6.493l5.5077-3.2465c.4959-.2975.6639-.9345.3789-1.4365l-1.4389-2.544c-.2735-.4937-.8969-.673-1.3924-.4005-.0086.0047-.0171.0095-.0255.0145l-3.0297,1.7854V1.0534C11.4748.4726,11.012,0,10.4384,0,10.4384,0,10.4375,0,10.4375,0ZM3.132,14.53c-.1486.0869-.3398.0374-.4271-.1106-.0018-.003-.0035-.0061-.0052-.0091l-1.4389-2.544c-.0895-.1574-.0375-.3572.1174-.4516l3.3884-1.9973,1.7577,1.0362v2.0782l-3.3922,1.9983m4.1098-4.4929v6.9094c0,.1825.1431.3289.3178.3289h2.8779c.1792-.0031.3219-.1503.3187-.3288h0v-6.9095l.1785-.1046,5.6852-3.3511c.1549-.0944.2068-.2941.1174-.4516l-1.4389-2.544c-.0822-.1509-.2716-.2069-.423-.1249-.0031.0017-.0061.0034-.0092.0051l-3.3922,1.9993v.0028l-.1775.1055-1.7777,1.0476c-.3203.1893-.7189.1893-1.0391,0l-1.9561-1.1531v-.0028l-3.3913-1.9993c-.1486-.0869-.3398-.0374-.4271.1106-.0018.003-.0035.0061-.0052.0091l-1.4389,2.544c-.0895.1574-.0375.3572.1174.4516l3.3884,1.9973,2.4753,1.4584h0Zm1.9151-4.046l1.5993-.9421V1.0534c.0032-.1785-.1395-.3257-.3186-.3289h-2.8771c-.1789.0036-.321.1507-.3178.3289v3.9956l1.5993.9421c.0969.0579.218.0579.3148,0Zm2.7844,4.7438l2.4753-1.4584.1813.1065,2.3837,1.4051c.4943.2918.6632.9345.3789,1.4374l-1.4389,2.544c-.2863.5048-.9208.6788-1.417.386l-2.563-1.5106v-2.91h-.0001Zm2.9247,3.795c.1508.0893.3435.0361.4323-.1198l1.4389-2.544c.0895-.1574.0375-.3572-.1174-.4516l-2.2042-1.2986-.4705.2776v1.4726l-1.2862.7301v.6332l2.2071,1.3005h-.0001Z" fill="#fff" fill-rule="evenodd"/>
</svg>