<?xml version="1.0" encoding="UTF-8"?>
<svg id="uuid-8e2cb410-f6c9-493e-829d-a310bb013eb6" data-name="Layer 2" xmlns="http://www.w3.org/2000/svg" viewBox="0 0 17.9 18">
  <g id="uuid-f79893a1-e2c7-49fc-bdcf-86e622afcf4c" data-name="Layer 1">
    <path id="uuid-a88e5b4a-6fbd-4a42-b954-ede4fb76c757" data-name="yj-fill" d="m6.6.4c0-.2.2-.4.3-.4h3.2c.2,0,.3.2.3.4h0v4.3l-.8.5-.9.5s0,0,0,0c-.1,0-.2,0-.3,0l-1.8-1V.4ZM2.1,15c-.2,0-.4,0-.5-.1L0,12.1c0-.2,0-.4.1-.5l3.7-2.2,1.9,1.1v2.3l-3.7,2.2m14.8-8.6l-6.2,3.6h-.2v7.6h0c0,.2-.2.4-.3.4h-3.2c-.2,0-.3-.2-.3-.4v-7.5L.2,6.4c-.2,0-.2-.3-.1-.5l1.6-2.8c0-.2.3-.2.5-.1l3.7,2.2h0s2.1,1.3,2.1,1.3c.4.2.8.2,1.1,0l2-1.1h.2c0-.1,3.7-2.3,3.7-2.3.2,0,.4,0,.5.1l1.6,2.8c0,.2,0,.4-.1.5Zm.4,4.6l-2.6-1.5h-.2c0-.1-2.7,1.5-2.7,1.5v3.2s2.8,1.6,2.8,1.6c.5.3,1.2.1,1.6-.4l1.6-2.8c.3-.5.1-1.2-.4-1.6Zm-.3,1.2l-1.6,2.8c0,.2-.3.2-.5.1l-2.4-1.4v-.7l1.4-.8v-1.6s.5-.3.5-.3l2.4,1.4c.2,0,.2.3.1.5Z" fill="#fff"/>
  </g>
</svg>