<svg width="54" height="69" viewBox="0 0 54 69" fill="none" xmlns="http://www.w3.org/2000/svg">
<path d="M39.8653 29.1241C38.8279 30.1524 36.9512 32 33.8182 32H15.6263C15.2284 32 14.8469 31.842 14.5656 31.5607C14.2843 31.2794 14.1263 30.8978 14.1263 30.5L14.1263 17.5C14.1263 16.6716 14.7978 16 15.6263 16C16.4547 16 17.1263 16.6716 17.1263 17.5L17.1263 28.5C17.1263 28.6326 17.1789 28.7598 17.2727 28.8536C17.3665 28.9473 17.4937 29 17.6263 29H33.8182C35.6766 29 36.7809 27.9562 37.8134 26.934C38.1691 26.5818 38.5872 25.9801 38.9187 25.3238C39.0798 25.0046 39.2051 24.7027 39.2872 24.4473C39.3254 24.3285 39.349 24.2368 39.3636 24.17C39.3709 24.1366 39.376 24.1094 39.3795 24.0882C39.3812 24.0776 39.3826 24.0685 39.3836 24.0608L39.385 24.0504L39.3855 24.046L39.3857 24.044L39.3858 24.0431L39.3858 24.0426L39.3859 24.0424C39.3859 24.0423 39.3859 24.0421 38.8887 23.989L39.3859 24.0421C39.3878 24.0245 39.3887 24.0067 39.3887 23.989L39.3891 10C39.3891 8.64094 38.7812 6.96561 37.7022 5.63028C36.6278 4.30076 35.2515 3.5 33.8184 3.5H4C3.72386 3.5 3.5 3.72386 3.5 4V62.9481C3.5 63.0173 3.51437 63.0858 3.54221 63.1492C3.5792 63.2334 3.64783 63.3508 3.77572 63.5028L4.15825 63.1808L3.77573 63.5028C4.02928 63.804 4.43552 64.1384 4.97708 64.4538C6.07454 65.0929 7.45825 65.5 8.56566 65.5C9.68635 65.5 11.2111 65.0851 12.4528 64.4254C13.0659 64.0996 13.5342 63.7535 13.8282 63.441C13.9387 63.3236 14.0084 63.2292 14.0525 63.1573C14.06 63.1452 14.0669 63.1327 14.0733 63.12C14.0834 63.1031 14.0927 63.0854 14.1009 63.067C14.1047 63.0586 14.1082 63.0503 14.1114 63.042L14.1161 63.0297L14.1182 63.0236L14.1193 63.0206L14.1198 63.0191L14.12 63.0183L14.1202 63.018L14.1202 63.0178L14.1203 63.0177L14.1119 63.0149C14.1119 63.0148 14.1119 63.0148 14.1119 63.0148L14.1203 63.0176C14.1539 62.9172 14.1538 62.8137 14.1263 62.7193V44C14.1263 43.1716 14.7978 42.5 15.6263 42.5H38.3636C39.1921 42.5 39.8636 43.1716 39.8636 44V62.8792C39.8636 62.9587 39.8826 63.0371 39.9189 63.1078C39.9513 63.1709 40.0021 63.2556 40.0815 63.3622C40.2966 63.6513 40.6472 63.9941 41.1302 64.3248C42.0974 64.9869 43.4479 65.5 44.9293 65.5C46.3584 65.5 47.8388 64.8982 48.9965 64.1267C49.567 63.7466 50.0095 63.3577 50.2904 63.0447C50.3269 63.0041 50.3588 62.9669 50.3865 62.9332C50.4102 62.9042 50.4305 62.8729 50.447 62.8399C50.4807 62.8079 50.5104 62.7708 50.5347 62.729M50.5347 62.729L50.5349 62.7286C50.5348 62.7287 50.5348 62.7289 50.5347 62.729Z" stroke="#F53B5B" stroke-linecap="round" stroke-linejoin="round"/>
</svg>
