<svg width="54" height="69" viewBox="0 0 54 69" fill="none" xmlns="http://www.w3.org/2000/svg">
<path d="M14.1263 62.5196V44C14.1263 43.1716 14.7978 42.5 15.6263 42.5H38.3636C39.1921 42.5 39.8636 43.1716 39.8636 44V62.5C39.8636 63.0345 40.2355 63.7586 41.2644 64.4328C42.2559 65.0825 43.6107 65.5 44.9293 65.5C46.187 65.5 47.6779 64.9938 48.8598 64.2368C49.4423 63.8638 49.8896 63.4675 50.1749 63.1105C50.3646 62.8731 50.4388 62.7106 50.4704 62.623C50.49 62.5687 50.5 62.5113 50.5 62.4535V2C50.5 1.17157 51.1716 0.5 52 0.5C52.8284 0.5 53.5 1.17157 53.5 2V62.5C53.5 63.4723 53.0426 64.3275 52.5186 64.9833C51.9798 65.6575 51.2615 66.2612 50.4777 66.7632C48.9268 67.7564 46.8823 68.5 44.9293 68.5C43.0369 68.5 41.1089 67.9175 39.6203 66.9422C38.1613 65.9862 36.8636 64.459 36.8636 62.5V46C36.8636 45.7239 36.6398 45.5 36.3636 45.5H17.6263C17.3501 45.5 17.1263 45.7239 17.1263 46V63C17.1263 63.9148 16.6239 64.6975 16.154 65.2399C15.6449 65.8276 14.9654 66.3748 14.2066 66.8408C12.6966 67.768 10.6631 68.5 8.56566 68.5C6.45562 68.5 4.52599 67.7596 3.11584 66.8044C2.40891 66.3256 1.79166 65.7654 1.33563 65.167C0.903664 64.6001 0.5 63.844 0.5 63V2C0.5 1.17157 1.17157 0.5 2 0.5H33.8182C36.4236 0.5 38.5829 1.94733 40.0354 3.74472C41.4818 5.53467 42.3889 7.85938 42.3889 10V23.5C42.3889 25.7428 41.2718 27.8567 39.7346 29.3785C38.1965 30.9012 36.0681 32 33.8182 32H15.6263C15.2284 32 14.8469 31.842 14.5656 31.5607C14.2843 31.2794 14.1263 30.8978 14.1263 30.5L14.1263 17.5C14.1263 16.6716 14.7978 16 15.6263 16C16.4547 16 17.1263 16.6716 17.1263 17.5L17.1263 28.5C17.1263 28.6326 17.1789 28.7598 17.2727 28.8536C17.3665 28.9473 17.4937 29 17.6263 29H33.8182C35.1027 29 36.5097 28.3496 37.624 27.2465C38.7392 26.1424 39.3889 24.7561 39.3889 23.5V10C39.3889 8.64094 38.7811 6.96561 37.702 5.63028C36.6276 4.30076 35.2513 3.5 33.8182 3.5H4C3.72386 3.5 3.5 3.72386 3.5 4V62.8663C3.5 62.9496 3.52081 63.0316 3.56054 63.1048C3.59398 63.1664 3.64479 63.2476 3.72181 63.3487L4.11951 63.0456L3.72181 63.3487C3.94443 63.6408 4.3057 63.9869 4.7983 64.3206C5.78735 64.9905 7.14056 65.5 8.56566 65.5C10.0034 65.5 11.5002 64.9821 12.6368 64.2842C13.2012 63.9377 13.624 63.5786 13.8864 63.2757C13.9522 63.1998 14.0012 63.1356 14.0377 63.0828C14.0497 63.0655 14.0605 63.0474 14.0701 63.0289C14.0856 63.0077 14.0997 62.985 14.1121 62.9609C14.1178 62.9498 14.123 62.9389 14.1277 62.9282L14.1344 62.9122L14.1374 62.9044L14.1389 62.9005L14.1396 62.8986L14.14 62.8976L14.1402 62.8971L14.1402 62.8969L14.1403 62.8968C14.1403 62.8968 14.1403 62.8967 14.1181 62.8886C14.1181 62.8886 14.1181 62.8886 14.1181 62.8886L14.1403 62.8967C14.1869 62.7689 14.1781 62.6345 14.1263 62.5196Z" stroke="#F53B5B" stroke-linecap="round" stroke-linejoin="round"/>
</svg>
