<svg width="55" height="69" viewBox="0 0 55 69" fill="none" xmlns="http://www.w3.org/2000/svg">
<path d="M5.36116 62.0526C5.3647 62.0871 5.37436 62.1611 5.39822 62.2609C5.44658 62.4631 5.54558 62.7409 5.74578 63.02C6.06999 63.472 6.9975 64.4 9.76058 64.4C12.5237 64.4 13.4512 63.472 13.7754 63.02C13.9756 62.7409 14.0746 62.4631 14.1229 62.2609C14.1468 62.1611 14.1568 62.0839 14.1603 62.0494L14.1752 51.888L14.1603 43.7C14.1603 42.4297 15.1453 41.4 16.3602 41.4H39.4504C40.7257 41.4 41.7595 42.4724 41.7598 43.7935C41.7603 46.4655 41.7615 47.8446 41.7615 52.9V62.1C41.7615 62.1098 41.7615 62.1196 41.7614 62.1293L41.761 62.1528C41.7606 62.1679 41.7602 62.1829 41.7596 62.1979L41.7736 62.2609C41.8219 62.4631 41.9209 62.7409 42.1211 63.02C42.4453 63.472 43.3728 64.4 46.1359 64.4C48.899 64.4 49.8265 63.472 50.1507 63.02C50.3509 62.7409 50.4499 62.4631 50.4983 62.2609C50.5222 62.1611 50.5318 62.0871 50.5354 62.0526C50.5418 61.9849 50.5504 61.9178 50.5611 61.8515V2.3C50.5611 1.02974 51.5461 0 52.761 0C53.976 0 54.9609 1.02974 54.9609 2.3V62.1C54.9609 62.2881 54.9393 62.4709 54.8986 62.6459C54.8743 62.8473 54.834 63.0954 54.7667 63.3766C54.6088 64.0369 54.2954 64.9091 53.6706 65.78C52.3449 67.628 49.9725 69 46.1359 69C42.2993 69 39.927 67.628 38.6013 65.78C37.9765 64.9091 37.663 64.0369 37.5051 63.3766C37.4259 63.0452 37.384 62.7598 37.3617 62.5427C37.3417 62.3474 37.3421 62.1519 37.3617 61.9603V46H18.5601L18.5601 62.1C18.5467 63.4127 18.0445 64.7355 17.2953 65.78C15.9695 67.628 13.5972 69 9.76058 69C5.92399 69 3.55166 67.628 2.22594 65.78C1.48296 64.7443 0.960938 63.407 0.960938 62.1V2.04775C0.960938 0.906801 1.85637 0 2.96094 0H33.9594C40.0343 0 44.1589 4.32238 44.1589 10.6737V21.9395C44.1589 28.2908 40.0343 32.6132 33.9594 32.6132H16.3602C15.2322 32.6132 14.3024 31.7255 14.1752 30.5818V17.8082C14.1752 14.6008 18.5465 14.6013 18.5465 17.8082V28.0132H33.9594C37.6043 28.0132 39.7591 25.7503 39.7591 21.9395V10.6737C39.7591 6.86289 37.6043 4.6 33.9594 4.6H5.36116C5.12882 23.7465 5.361 42.9049 5.36116 62.0526Z" fill="#EE316F"/>
</svg>
