<svg width="148" height="23" viewBox="0 0 148 23" fill="none" xmlns="http://www.w3.org/2000/svg">
<path d="M9.82687 15.8709C10.003 16.3811 10.016 16.9336 9.86407 17.4515C9.76297 17.9047 9.4958 18.3035 9.11536 18.569C8.73493 18.8345 8.26892 18.9473 7.80943 18.8853C7.54088 18.9182 7.26841 18.8931 7.01035 18.8117C6.75229 18.7303 6.51462 18.5945 6.31334 18.4135C6.11205 18.2324 5.95182 18.0102 5.84342 17.7619C5.73503 17.5136 5.68098 17.2449 5.68491 16.9739V14.9158H0V16.5336C0 21.2753 3.70353 22.7045 7.70123 22.7045C11.5152 22.7045 14.6687 21.3825 15.1816 17.8557C15.3773 16.6992 15.3648 15.5169 15.1444 14.3649C14.2664 9.91906 6.23379 8.59704 5.61053 6.13478C5.52816 5.7736 5.51554 5.39997 5.57333 5.03404C5.65766 4.59376 5.9047 4.20155 6.26511 3.93576C6.62552 3.66997 7.07277 3.55016 7.51752 3.60026C7.77746 3.57541 8.0397 3.60716 8.28624 3.69333C8.53279 3.7795 8.75782 3.91805 8.94591 4.09949C9.134 4.28092 9.2807 4.50096 9.37596 4.7445C9.47121 4.98804 9.51276 5.24933 9.49777 5.51046V6.83473H14.7792V5.32757C14.7792 0.698827 10.635 0 7.62797 0C3.85118 0 0.806978 1.24863 0.219777 4.70325C0.0499099 5.6505 0.0625345 6.62155 0.25697 7.56404C1.20934 11.8665 8.72799 13.1163 9.82687 15.8709ZM78.5778 15.8359C78.7533 16.333 78.7663 16.8731 78.615 17.3781C78.5104 17.827 78.241 18.2199 77.8602 18.4787C77.4795 18.7375 77.0154 18.8432 76.5603 18.7746C76.2936 18.8073 76.0229 18.7818 75.7668 18.6999C75.5108 18.618 75.2755 18.4816 75.077 18.3C74.8785 18.1185 74.7216 17.8961 74.6169 17.6481C74.5123 17.4001 74.4624 17.1324 74.4708 16.8633V14.8436H68.8636V16.4603C68.8636 21.1263 72.53 22.5567 76.4893 22.5567C80.2673 22.5567 83.3847 21.2708 83.8987 17.745C84.0933 16.6009 84.0803 15.431 83.8603 14.2915C82.9801 9.88293 75.023 8.59704 74.437 6.13591C74.3531 5.77416 74.3404 5.3995 74.3998 5.03291C74.478 4.59946 74.7196 4.21272 75.0745 3.95276C75.4295 3.6928 75.8707 3.57952 76.3068 3.63638C76.5641 3.6157 76.8229 3.65062 77.0657 3.73878C77.3084 3.82694 77.5294 3.96628 77.7137 4.14739C77.898 4.32849 78.0414 4.54714 78.1341 4.78853C78.2268 5.02992 78.2666 5.28843 78.2509 5.54659V6.8336H83.494V5.36595C83.494 0.810595 79.387 0.0756409 76.4183 0.0756409C72.7137 0.0756409 69.6706 1.32427 69.0845 4.74164C68.9145 5.67603 68.9275 6.63463 69.1228 7.56404C70.0763 11.8643 77.5195 13.1129 78.5834 15.8314L78.5778 15.8359ZM122.471 17.7089L122.178 0.661572H127.421V21.6016H119.87L114.554 4.00443L114.847 21.6016H109.639V0.661572H117.486L122.472 17.7089H122.471ZM27.3877 2.20373L24.4573 21.824H18.7386L22.6258 0.661572H32.0492L35.9364 21.824H30.2527L27.3877 2.20373ZM58.2692 2.20373L54.6018 21.8251H49.2527L45.6236 2.20373L45.4759 21.8228H40.19L40.6295 0.660443H49.2527L51.9306 17.1918L54.6018 0.661572H63.2182L63.696 21.824H58.4146L58.2692 2.20373ZM96.3313 18.6651C96.7995 18.7072 97.2664 18.5719 97.6399 18.286C98.0134 18 98.2663 17.5843 98.3488 17.1207C98.3803 16.8525 98.3927 16.5824 98.3859 16.3124V0.624316H103.74V15.8359C103.74 16.239 103.702 17.0112 103.702 17.2313C103.335 21.2008 100.217 22.4855 96.3313 22.4855C92.4452 22.4855 89.3277 21.1996 88.9603 17.2313C88.9083 16.7681 88.8959 16.3013 88.9231 15.8359V0.624316H94.2789V16.3169C94.2721 16.5868 94.2838 16.8569 94.3139 17.1252C94.3968 17.5884 94.6499 18.0036 95.0234 18.2891C95.3968 18.5745 95.8634 18.7095 96.3313 18.6674V18.6651ZM140.482 18.4393C140.969 18.4915 141.457 18.3632 141.856 18.0785C142.255 17.7939 142.535 17.3728 142.645 16.8949C142.694 16.6284 142.706 16.3565 142.682 16.0866V13.0056H140.519V9.91906H147.999V15.6135C148.004 16.0801 147.98 16.5465 147.927 17.0101C147.56 20.8689 144.223 22.227 140.483 22.227C136.743 22.227 133.405 20.8722 133.044 17.0101C132.99 16.5466 132.966 16.0801 132.971 15.6135V6.68684C132.971 6.3188 133.008 5.65836 133.044 5.29031C133.52 1.32314 136.711 0.073382 140.483 0.073382C144.223 0.073382 147.524 1.32201 147.891 5.29031C147.936 5.7544 147.948 6.22103 147.928 6.68684V7.38454H142.574V6.20929C142.574 5.9382 142.55 5.66763 142.501 5.40095C142.359 4.95301 142.078 4.56211 141.698 4.28475C141.319 4.00738 140.862 3.85789 140.393 3.85789C139.923 3.85789 139.466 4.00738 139.087 4.28475C138.708 4.56211 138.427 4.95301 138.284 5.40095C138.222 5.72782 138.197 6.0608 138.211 6.39331V16.0922C138.205 16.3622 138.217 16.6323 138.248 16.9006C138.377 17.3821 138.674 17.8017 139.084 18.0843C139.494 18.3668 139.991 18.4939 140.486 18.4427L140.482 18.4393Z" fill="white"/>
</svg>
