<svg width="71" height="30" viewBox="0 0 71 30" fill="none" xmlns="http://www.w3.org/2000/svg">
<path fill-rule="evenodd" clip-rule="evenodd" d="M62.6374 10.5168C61.3899 10.1876 59.9093 9.8503 58.6629 9.51266C58.4138 9.44521 55.5421 8.72291 55.5421 7.03661C55.5421 5.12673 57.8839 4.83209 59.4685 4.83209C61.4214 4.83209 63.9226 5.58304 64.6554 5.89317C65.3881 6.2031 65.6749 5.94992 66.0425 5.50928L68.3334 2.764C68.4735 2.59584 68.4712 2.22094 68.0813 2.04877C68.0813 2.04877 63.8827 0.188965 59.6514 0.188965C57.4754 0.188965 55.6643 0.338392 53.8826 1.09183C52.1197 1.8382 49.6332 3.66323 49.6332 7.45317C49.6332 12.5486 53.4475 13.7776 55.3001 14.3342C56.7222 14.7621 60.7784 15.4706 61.9089 16.298C62.7298 16.899 62.9785 17.8492 62.7953 18.7548C62.5803 19.8178 61.3685 20.7411 58.4685 20.7411C56.1504 20.7411 54.653 20.1602 52.3927 19.0414C51.8071 18.7515 51.7303 18.7479 51.3793 19.1614L48.9993 21.9665C48.6391 22.3909 48.3793 22.7251 48.975 23.0727C50.1098 23.7351 54.9505 25.7344 59.1213 25.7344C63.8051 25.7344 68.753 23.9021 68.753 17.8439C68.753 14.9213 67.6609 11.8421 62.6374 10.5168Z" fill="white"/>
<path fill-rule="evenodd" clip-rule="evenodd" d="M14.1161 19.135C13.2031 20.3835 11.9175 21.0082 10.2601 21.0082C9.16014 21.0082 8.28899 20.6872 7.64649 20.0449C7.00493 19.4025 6.6832 18.5396 6.6832 17.4544C6.6832 15.9978 7.14735 14.9705 8.07603 14.3709C9.00357 13.7721 11.9561 13.5491 11.9561 13.5491C12.5197 13.5061 13.4438 13.4713 14.0085 13.4713H14.4596C15.0247 13.4713 15.4866 13.6045 15.4866 14.0925C15.4866 15.9959 15.0291 17.8863 14.1161 19.135ZM19.3521 2.55175C17.775 0.968629 15.0367 0.176208 11.1386 0.176208C6.21594 0.176208 2.92139 1.59462 2.19898 1.90207C1.73884 2.09774 1.76541 2.46978 1.90554 2.63774L4.19647 5.38322C4.70267 5.98971 4.99458 5.97481 5.46695 5.81009C5.48014 5.80551 7.78713 4.8222 11.1386 4.8222C12.5663 4.8222 13.6431 5.09029 14.3837 5.60372C15.386 6.2985 15.4039 7.49411 15.4756 8.21353C15.5236 8.69487 15.0247 8.95436 14.4596 8.95436H11.1386C7.33999 8.95436 4.5333 9.62181 2.72048 10.956C0.907081 12.2907 0 14.3568 0 17.1541C0 19.7389 0.760266 21.7508 2.28137 23.1923C3.80228 24.634 5.97947 25.3554 8.65407 25.3554C11.3449 25.3554 13.5867 24.417 15.4846 22.0328C15.9671 21.4267 16.2898 21.9327 16.2898 21.9327L18.4222 24.4382C18.4222 24.4382 18.4374 24.4569 18.466 24.4848C18.5513 24.5679 18.7606 24.7351 19.0657 24.7351C19.21 24.7351 21.1372 24.7351 21.1372 24.7351C21.4987 24.7351 21.7157 24.5416 21.7197 24.2651V11.0526C21.7197 6.97035 20.9315 4.13716 19.3521 2.55175Z" fill="white"/>
<path fill-rule="evenodd" clip-rule="evenodd" d="M39.2073 0.487793L49.6459 0.487984C50.1414 0.487984 50.2842 0.794863 49.9627 1.17416L40.695 12.0968L37.3998 2.73416L38.2247 1.08989C38.3935 0.758557 38.8349 0.487793 39.2073 0.487793ZM31.8546 0.48813C32.352 0.48813 32.9402 0.849085 33.1652 1.29106L47.4983 29.3562C47.8274 30.0005 47.2916 30.0003 47.1199 30.0003H47.1159H45.8615C45.2829 30.0003 44.7692 29.3719 44.7572 29.3572L44.757 29.3569L35.2545 17.9613L29.7524 24.4388C29.7524 24.4388 29.5157 24.7348 29.1099 24.7348L26.1942 24.7352C25.6985 24.7352 25.4747 24.3721 25.6985 23.9294L31.1808 13.0795L21.2463 1.1745C20.9241 0.7952 21.0681 0.48813 21.5632 0.48813H31.8546Z" fill="white"/>
</svg>
