<svg id="logoani" xml:space="preserve" width="400" height="122" viewBox="0 0 200 61" >
<path fill="none" stroke="#E6007E" stroke-miterlimit="10" d="M0.284,28.44V1.039h13.421c2.356,0,4.408,0.874,6.1,2.597
    c1.696,1.731,2.558,3.85,2.558,6.294c0,2.418-0.858,4.533-2.551,6.285c-1.692,1.699-3.747,2.562-6.105,2.562H3.355v9.664
    L0.284,28.44L0.284,28.44z M3.355,15.555h10.349c1.513,0,2.831-0.562,3.917-1.67c1.08-1.1,1.627-2.431,1.627-3.955
    c0-1.552-0.548-2.897-1.628-4c-1.089-1.107-2.406-1.669-3.917-1.669H3.355V15.555z"/>
<path fill="none" stroke="#E6007E" stroke-miterlimit="10" d="M47.762,28.44l-2.381-4.853H31.258l-2.422,4.853h-3.467L38.297,2.092
    L51.224,28.44H47.762z M32.792,20.408h11.009L38.297,9.192L32.792,20.408z"/>
<path fill="none" stroke="#E6007E" stroke-miterlimit="10" d="M70.77,28.44c-2.984,0-5.601-1.095-7.772-3.256
    c-2.138-2.231-3.224-4.93-3.224-8.017V1.039h3.072v16.128c0,2.249,0.748,4.104,2.285,5.672c1.573,1.602,3.418,2.381,5.64,2.381
    c2.228,0,4.057-0.777,5.593-2.374c1.598-1.599,2.377-3.458,2.377-5.679V1.039h3.112v16.128c0,3.11-1.092,5.801-3.247,7.998
    C76.42,27.337,73.783,28.44,70.77,28.44z"/>
<polygon fill="none" stroke="#E6007E" stroke-miterlimit="10" points="93.701,28.44 93.701,1.039 96.772,1.039 96.772,25.22 
    111.018,25.22 111.018,28.44 "/>
<rect x="122.556" y="1.039" fill="none" stroke="#E6007E" stroke-miterlimit="10" width="3.072" height="27.401"/>
<polygon fill="none" stroke="#E6007E" stroke-miterlimit="10" points="139.22,28.398 139.22,2.05 158.186,19.453 158.186,0.997 
    161.301,0.997 161.301,27.39 142.293,9.987 142.293,28.398 "/>
<polygon fill="none" stroke="#E6007E" stroke-miterlimit="10" points="172.875,28.44 172.875,1.039 190.19,1.039 190.19,4.26 
    175.945,4.26 175.945,13.171 188.354,13.171 188.354,16.351 175.945,16.351 175.945,25.22 190.19,25.22 190.19,28.44 "/>
<g>
    <path fill="none" stroke="#E6007E" stroke-miterlimit="10" d="M39.056,39.291v11.127c0,2.113-0.71,3.865-2.172,5.354
        c-1.477,1.47-3.188,2.187-5.224,2.187c-2.017,0-3.712-0.712-5.183-2.177c-1.443-1.506-2.151-3.264-2.151-5.362V39.291"/>
    <line fill="none" stroke="#E6007E" stroke-miterlimit="10" x1="54.729" y1="39.458" x2="54.729" y2="58.333"/>
    <line fill="none" stroke="#E6007E" stroke-miterlimit="10" x1="47.381" y1="39.76" x2="62.143" y2="39.76"/>
    <line fill="none" stroke="#E6007E" stroke-miterlimit="10" x1="70.291" y1="58.322" x2="70.291" y2="39.271"/>
    <line fill="none" stroke="#E6007E" stroke-miterlimit="10" x1="85.013" y1="48.911" x2="70.294" y2="48.911"/>
    <line fill="none" stroke="#E6007E" stroke-miterlimit="10" x1="85.019" y1="39.271" x2="85.019" y2="58.322"/>
    <path fill="none" stroke="#E6007E" stroke-miterlimit="10" d="M93.61,39.292l6.855,18.167l5.688-10.512l5.781,10.512l6.828-18.167"
        />
    <path fill="none" stroke="#E6007E" stroke-miterlimit="10" d="M138.778,54.064h-14 M122.692,58.244l9.057-18.079l9.057,18.079"/>
    <line fill="none" stroke="#E6007E" stroke-miterlimit="10" x1="148.3" y1="39.312" x2="148.3" y2="58.354"/>
    <polyline fill="none" stroke="#E6007E" stroke-miterlimit="10" points="190.466,57.854 179.532,57.854 179.532,39.76 
        190.466,39.76   "/>
    <line fill="none" stroke="#E6007E" stroke-miterlimit="10" x1="179.59" y1="48.784" x2="189.559" y2="48.784"/>
</g>
<line fill="none" stroke="#E6007E" stroke-miterlimit="10" x1="0.666" y1="58.322" x2="0.666" y2="39.271"/>
<line fill="none" stroke="#E6007E" stroke-miterlimit="10" x1="15.388" y1="48.911" x2="0.669" y2="48.911"/>
<line fill="none" stroke="#E6007E" stroke-miterlimit="10" x1="15.394" y1="39.271" x2="15.394" y2="58.322"/>
<line fill="none" stroke="#E6007E" stroke-miterlimit="10" x1="163.729" y1="39.458" x2="163.729" y2="58.333"/>
<line fill="none" stroke="#E6007E" stroke-miterlimit="10" x1="156.288" y1="39.79" x2="171.05" y2="39.79"/>
<path fill="#E6007E" stroke="#E6007E" stroke-miterlimit="10" d="M0.284,28.44V1.039h13.421c2.356,0,4.408,0.874,6.1,2.597
    c1.696,1.731,2.558,3.85,2.558,6.294c0,2.418-0.858,4.533-2.551,6.285c-1.692,1.699-3.747,2.562-6.105,2.562H3.355v9.664
    L0.284,28.44L0.284,28.44z M3.355,15.555h10.349c1.513,0,2.831-0.562,3.917-1.67c1.08-1.1,1.627-2.431,1.627-3.955
    c0-1.552-0.548-2.897-1.628-4c-1.089-1.107-2.406-1.669-3.917-1.669H3.355V15.555z"/>
<path fill="#E6007E" stroke="#E6007E" stroke-miterlimit="10" d="M47.762,28.44l-2.381-4.853H31.258l-2.422,4.853h-3.467
    L38.297,2.092L51.224,28.44H47.762z M32.792,20.408h11.009L38.297,9.192L32.792,20.408z"/>
<path fill="#E6007E" stroke="#E6007E" stroke-miterlimit="10" d="M70.77,28.44c-2.984,0-5.601-1.095-7.772-3.256
    c-2.138-2.231-3.224-4.93-3.224-8.017V1.039h3.072v16.128c0,2.249,0.748,4.104,2.285,5.672c1.573,1.602,3.418,2.381,5.64,2.381
    c2.228,0,4.057-0.777,5.593-2.374c1.598-1.599,2.377-3.458,2.377-5.679V1.039h3.112v16.128c0,3.11-1.092,5.801-3.247,7.998
    C76.42,27.337,73.783,28.44,70.77,28.44z"/>
<polygon fill="#E6007E" stroke="#E6007E" stroke-miterlimit="10" points="93.701,28.44 93.701,1.039 96.772,1.039 96.772,25.22 
    111.018,25.22 111.018,28.44 "/>
<rect x="122.556" y="1.039" fill="#E6007E" stroke="#E6007E" stroke-miterlimit="10" width="3.072" height="27.401"/>
<polygon fill="#E6007E" stroke="#E6007E" stroke-miterlimit="10" points="139.22,28.398 139.22,2.05 158.186,19.453 158.186,0.997 
    161.301,0.997 161.301,27.39 142.293,9.987 142.293,28.398 "/>
<polygon fill="#E6007E" stroke="#E6007E" stroke-miterlimit="10" points="172.875,28.44 172.875,1.039 190.19,1.039 190.19,4.26 
    175.945,4.26 175.945,13.171 188.354,13.171 188.354,16.351 175.945,16.351 175.945,25.22 190.19,25.22 190.19,28.44 "/>
</svg>   