<svg width="50" height="50" viewBox="0 0 50 50" fill="none" xmlns="http://www.w3.org/2000/svg">
<path d="M25.0002 47.6959C12.57 47.6959 2.37445 37.4303 2.37445 25.0003C2.36375 22.2929 2.84903 19.6065 3.80626 17.074L17.0392 43.7151C17.2137 44.0665 17.4235 44.3438 17.8424 44.3438C18.025 44.3356 18.2005 44.2706 18.3445 44.1579C18.4884 44.0452 18.5937 43.8904 18.6455 43.7151L24.7208 30.0631C24.7907 29.9236 24.8605 29.7837 25.0002 29.7837C25.1399 29.7837 25.2093 29.9236 25.2794 30.0631L31.3549 43.7151C31.4067 43.8904 31.5119 44.0452 31.6559 44.1579C31.7998 44.2706 31.9753 44.3355 32.1579 44.3438C32.577 44.3438 32.787 44.0656 32.961 43.7151L46.1942 17.074C47.1515 19.6065 47.6367 22.2929 47.6258 25.0003C47.6258 37.4303 37.4303 47.6959 25.0002 47.6959ZM25.0002 19.8676C24.8605 19.8676 24.7907 19.7279 24.7208 19.5882L17.5978 3.59651C22.3823 1.87402 27.6179 1.87402 32.4024 3.59651L25.2794 19.5883C25.2094 19.728 25.1399 19.8677 25.0002 19.8677V19.8676ZM17.7723 36.2779C17.6326 36.2779 17.563 36.1384 17.4931 35.9987L5.97091 12.7795C8.02587 9.61147 10.8171 6.98785 14.1062 5.13275L22.3811 23.5689C22.4193 23.7019 22.5035 23.817 22.6187 23.8937C22.7339 23.9704 22.8725 24.0037 23.01 23.9878H26.9901C27.1276 24.0037 27.2662 23.9704 27.3814 23.8937C27.4966 23.817 27.5808 23.7019 27.619 23.5689L35.8942 5.13275C39.1835 6.98776 41.9748 9.6114 44.0298 12.7795L32.5071 35.9987C32.4373 36.1384 32.367 36.2779 32.2277 36.2779C32.0884 36.2779 32.0184 36.1384 31.9483 35.9987L27.619 26.0826C27.5809 25.9495 27.4967 25.8344 27.3815 25.7577C27.2663 25.6809 27.1276 25.6477 26.9901 25.6637H23.0101C22.8726 25.6476 22.7339 25.6809 22.6187 25.7577C22.5035 25.8344 22.4193 25.9495 22.3812 26.0826L18.0517 35.9987C17.982 36.1384 17.912 36.2779 17.7723 36.2779ZM25.0002 50C29.9448 49.9999 34.7782 48.5337 38.8894 45.7866C43.0006 43.0395 46.2049 39.135 48.0971 34.5669C49.9892 29.9987 50.4843 24.972 49.5196 20.1225C48.5549 15.273 46.1738 10.8184 42.6775 7.32216C39.1811 3.82588 34.7265 1.44491 29.877 0.480329C25.0275 -0.484252 20.0008 0.0108833 15.4327 1.90312C10.8645 3.79536 6.96012 6.99971 4.21312 11.111C1.46613 15.2222 -3.99279e-05 20.0557 1.28448e-05 25.0003C-0.00331768 28.2843 0.641063 31.5367 1.89627 34.5713C3.15147 37.6059 4.99286 40.3632 7.31501 42.6853C9.63717 45.0075 12.3945 46.8488 15.4292 48.1039C18.4638 49.3591 21.7162 50.0034 25.0002 50Z" fill="white" shape-rendering="auto"/>
</svg>
