<svg width="54" height="69" viewBox="0 0 54 69" fill="none" xmlns="http://www.w3.org/2000/svg">
<path fill-rule="evenodd" clip-rule="evenodd" d="M0 2C0 0.89543 0.89543 0 2 0H33.8182C36.6196 0 38.9093 1.55566 40.4243 3.43046C41.9319 5.29609 42.8889 7.72901 42.8889 10V23.5C42.8889 25.9076 41.6936 28.1427 40.0864 29.7338C38.4779 31.3262 36.2293 32.5 33.8182 32.5H15.6263C15.0958 32.5 14.5871 32.2893 14.212 31.9142C13.837 31.5391 13.6263 31.0304 13.6263 30.5L13.6263 17.5C13.6263 16.3954 14.5217 15.5 15.6263 15.5C16.7308 15.5 17.6263 16.3954 17.6263 17.5L17.6263 28.5H33.8182C34.9425 28.5 36.2291 27.9238 37.2722 26.8912C38.3165 25.8573 38.8889 24.5924 38.8889 23.5V10C38.8889 8.77099 38.3308 7.20391 37.3131 5.94454C36.3028 4.69434 35.0572 4 33.8182 4H4V62.8663C4.01997 62.9031 4.05641 62.9628 4.11951 63.0456C4.30324 63.2867 4.62186 63.5972 5.07871 63.9066C5.99744 64.5289 7.25458 65 8.56566 65C9.89356 65 11.3009 64.5178 12.3752 63.8582C12.9072 63.5315 13.2872 63.2038 13.5085 62.9483C13.5635 62.8848 13.6012 62.835 13.6263 62.7987V44C13.6263 42.8954 14.5217 42 15.6263 42H38.3636C39.4682 42 40.3636 42.8954 40.3636 44V62.5C40.3636 62.8026 40.5877 63.3917 41.5385 64.0146C42.4471 64.61 43.7064 65 44.9293 65C46.0713 65 47.4699 64.5332 48.5902 63.8158C49.1391 63.4642 49.5413 63.1025 49.7843 62.7984C49.9428 62.6 49.9886 62.4851 50 62.4535V2C50 0.89543 50.8954 0 52 0C53.1046 0 54 0.89543 54 2V62.5C54 63.6302 53.4701 64.5934 52.9092 65.2954C52.3282 66.0225 51.5647 66.6608 50.7474 67.1842C49.1351 68.2168 46.9983 69 44.9293 69C42.9412 69 40.9177 68.39 39.3462 67.3604C37.8169 66.3583 36.3636 64.6974 36.3636 62.5V46H17.6263V63C17.6263 64.095 17.0295 64.9929 16.5319 65.5673C15.9817 66.2025 15.2595 66.781 14.4682 67.2668C12.896 68.2322 10.7731 69 8.56566 69C6.34138 69 4.3157 68.2211 2.83543 67.2184C2.09279 66.7153 1.43287 66.1195 0.937939 65.47C0.475403 64.863 0 64.0007 0 63V2Z" fill="#D9D9D9"/>
</svg>
