<svg width="54" height="69" viewBox="0 0 54 69" fill="none" xmlns="http://www.w3.org/2000/svg">
<path d="M15.6263 17.5L15.6263 30.5H33.8182C36.3434 30.5 37.8386 29.0198 38.8687 28C39.8788 27 40.8889 25 40.8889 24V9.5C40.8889 8.66667 39.8788 5.5 38.3636 4C36.9351 2.58579 34.8283 2 33.8182 2H2V63C2 65 5.73737 67 8.56566 67C11.3939 67 15.6263 65 15.6263 63V44H38.3636V63C38.3636 64.5 41.2929 67 44.9293 67C48.5657 67 52 64 52 63V2" stroke="black" stroke-width="4" stroke-linecap="round" stroke-linejoin="round"/>
</svg>
