<svg width="55" height="69" viewBox="0 0 55 69" fill="none" xmlns="http://www.w3.org/2000/svg">
<path d="M4.91192 62.3772L4.91194 62.3772L37.8591 62.0112L37.8617 61.9858V61.9603V46V45.5H37.3617H18.5601H18.0601V46L18.0601 62.0975C18.0473 63.2909 17.5876 64.5146 16.889 65.4886C15.674 67.1822 13.4674 68.5 9.76058 68.5C6.05378 68.5 3.84714 67.1822 2.63221 65.4886C1.9369 64.5193 1.46094 63.2818 1.46094 62.1V2.04775C1.46094 1.17337 2.14199 0.5 2.96094 0.5H33.9594C36.8736 0.5 39.2883 1.53398 40.9757 3.30046C42.6648 5.06885 43.6589 7.60735 43.6589 10.6737V21.9395C43.6589 25.0058 42.6648 27.5443 40.9757 29.3127C39.2883 31.0792 36.8736 32.1132 33.9594 32.1132H16.3602C15.5153 32.1132 14.7875 31.4505 14.6752 30.5525V17.8082C14.6752 17.1261 14.9042 16.6585 15.2078 16.3615C15.517 16.0591 15.9347 15.9028 16.3608 15.9028C16.7869 15.9029 17.2046 16.0592 17.5138 16.3616C17.8175 16.6587 18.0465 17.1263 18.0465 17.8082V28.0132V28.5132H18.5465H33.9594C35.8873 28.5132 37.4796 27.912 38.5879 26.7506C39.6931 25.5922 40.2591 23.9372 40.2591 21.9395V10.6737C40.2591 8.676 39.6931 7.021 38.5879 5.86262C37.4796 4.70115 35.8873 4.1 33.9594 4.1H5.36116H4.86719L4.8612 4.59393C4.7062 17.3669 4.75788 30.1485 4.80953 42.924C4.83532 49.3024 4.86111 55.6792 4.86116 62.0526L4.86116 62.0782L4.86377 62.1037C4.86925 62.1571 4.88226 62.2531 4.91192 62.3772ZM37.9914 63.2603C37.918 62.9531 37.8794 62.6898 37.8591 62.4917L14.1229 62.2609L14.6092 62.3772C14.6092 62.3772 14.6092 62.3772 14.6092 62.3772C14.6391 62.2522 14.6524 62.1527 14.6577 62.1004L14.6603 62.0753L14.6603 62.0501L14.6752 51.8887L14.6752 51.8871L14.6603 43.7C14.6603 43.6999 14.6603 43.6998 14.6603 43.6996C14.6605 42.6845 15.4422 41.9 16.3602 41.9H39.4504C40.4327 41.9 41.2596 42.7314 41.2598 43.7936C41.26 44.6526 41.2602 45.378 41.2604 46.1348C41.261 47.7323 41.2615 49.4698 41.2615 52.9V62.1L41.2614 62.1211L41.2614 62.1234L41.2611 62.1415C41.2611 62.142 41.2611 62.1424 41.2611 62.1429C41.2608 62.1548 41.2604 62.1664 41.26 62.1778L41.2574 62.2429L41.2715 62.3064L41.2855 62.3694L41.2854 62.3694L41.2873 62.3772C41.347 62.6272 41.4687 62.9683 41.7148 63.3114C41.9204 63.598 42.2974 64.0033 43.0024 64.3325C43.7011 64.6588 44.6994 64.9 46.1359 64.9C47.5724 64.9 48.5708 64.6588 49.2695 64.3325C49.9745 64.0033 50.3514 63.598 50.557 63.3114C50.8032 62.9683 50.9248 62.6272 50.9846 62.3772L50.9846 62.3772C51.0143 62.2531 51.0273 62.1571 51.0328 62.1037L51.0331 62.1C51.0385 62.043 51.0457 61.9868 51.0547 61.9314L51.0611 61.8917V61.8515V2.3C51.0611 1.28469 51.8429 0.5 52.761 0.5C53.6791 0.5 54.4609 1.28469 54.4609 2.3V62.1C54.4609 62.2497 54.4438 62.3945 54.4116 62.5325L54.4054 62.5591L54.4022 62.5861C54.38 62.7706 54.3428 62.9997 54.2804 63.2603C54.1339 63.873 53.843 64.6818 53.2643 65.4886C52.0494 67.1822 49.8427 68.5 46.1359 68.5C42.4291 68.5 40.2225 67.1822 39.0076 65.4886C38.4288 64.6818 38.1379 63.873 37.9914 63.2603Z" fill="#EE316F" stroke="#EE316F"/>
</svg>
