<svg width="233" height="69" viewBox="0 0 233 69" fill="none" xmlns="http://www.w3.org/2000/svg">
<g id="Vector">
<path d="M0 33.7062H5.83722V22.9489H12.4337C19.7421 22.9489 25.7217 19.0285 25.7217 11.5223V11.4266C25.7217 4.6854 20.8811 0.239051 13.0981 0.239051H0V33.7062ZM5.83722 17.642V5.5938H12.6236C16.9896 5.5938 19.7896 7.64963 19.7896 11.5701V11.6657C19.7896 15.1558 17.0371 17.642 12.6236 17.642H5.83722Z" fill="#EE316F"/>
<path d="M29.7867 33.7062H35.7663L39.1832 25.6263H54.8915L58.2609 33.7062H64.4303L49.8136 0H44.4035L29.7867 33.7062ZM41.3188 20.415L47.0136 7.0281L52.7559 20.415H41.3188Z" fill="#EE316F"/>
<path d="M86.8134 34.2321C95.498 34.2321 101.098 29.212 101.098 19.2197V0.239051H95.2607V19.5066C95.2607 25.6741 92.0811 28.7817 86.9083 28.7817C81.688 28.7817 78.5084 25.4828 78.5084 19.2675V0.239051H72.6712V19.5066C72.6712 29.212 78.1762 34.2321 86.8134 34.2321Z" fill="#EE316F"/>
<path d="M113.382 33.7062H136.683V28.3514H119.219V0.239051H113.382V33.7062Z" fill="#EE316F"/>
<path d="M147.367 33.7062H153.205V0.239051H147.367V33.7062Z" fill="#EE316F"/>
<path d="M166.368 33.7062H172.111V9.89671L190.429 33.7062H195.317V0.239051H189.575V23.3792L171.779 0.239051H166.368V33.7062Z" fill="#EE316F"/>
<path d="M208.133 33.7062H233V28.4471H213.97V19.4588H230.627V14.1996H213.97V5.49817H232.763V0.239051H208.133V33.7062Z" fill="#EE316F"/>
<path d="M0.735222 68.6056H3.54705V57.3104H17.9265V68.6056H20.7384V43.5052H17.9265V54.6569H3.54705V43.5052H0.735222V68.6056Z" fill="#EE316F"/>
<path d="M39.1671 69C45.3958 69 49.5602 65.1991 49.5602 57.8841V43.5052H46.7483V58.0993C46.7483 63.5855 43.8297 66.3824 39.2383 66.3824C34.5044 66.3824 31.6214 63.3345 31.6214 57.92V43.5052H28.8096V58.0993C28.8096 65.1991 33.0095 69 39.1671 69Z" fill="#EE316F"/>
<path d="M64.2169 68.6056H67.0643V46.1228H75.4286V43.5052H55.8526V46.1228H64.2169V68.6056Z" fill="#EE316F"/>
<path d="M82.1356 68.6056H84.9475V57.3104H99.3269V68.6056H102.139V43.5052H99.3269V54.6569H84.9475V43.5052H82.1356V68.6056Z" fill="#EE316F"/>
<path d="M117.578 68.7849H119.927L126.796 48.4177L133.63 68.7849H136.015L144.913 43.5052H141.959L134.84 64.4102L128.006 43.4335H125.693L118.859 64.4102L111.74 43.5052H108.679L117.578 68.7849Z" fill="#EE316F"/>
<path d="M146.108 68.6056H148.991L151.945 61.9719H165.506L168.425 68.6056H171.45L160.096 43.3259H157.462L146.108 68.6056ZM153.049 59.3902L158.744 46.6248L164.403 59.3902H153.049Z" fill="#EE316F"/>
<path d="M178.036 68.6056H180.848V43.5052H178.036V68.6056Z" fill="#EE316F"/>
<path d="M196.154 68.6056H199.001V46.1228H207.365V43.5052H187.789V46.1228H196.154V68.6056Z" fill="#EE316F"/>
<path d="M214.072 68.6056H232.26V66.0238H216.884V57.2387H230.48V54.6569H216.884V46.087H232.082V43.5052H214.072V68.6056Z" fill="#EE316F"/>
</g>
</svg>
